<svg xmlns="http://www.w3.org/2000/svg" viewBox="0 0 1200 630" font-family="Georgia, serif">
  <rect width="1200" height="630" fill="#1e2a45"/>
  <rect x="24" y="24" width="1152" height="582" rx="16" fill="none" stroke="#b08d45" stroke-width="2" opacity="0.6"/>
  <!-- constellation flourish -->
  <g stroke="#5b6e8f" stroke-width="1.5" opacity="0.7">
    <line x1="860" y1="140" x2="960" y2="200"/><line x1="960" y1="200" x2="1050" y2="160"/>
    <line x1="960" y1="200" x2="1000" y2="300"/><line x1="1000" y1="300" x2="920" y2="380"/>
  </g>
  <g fill="#c8ab6e">
    <circle cx="860" cy="140" r="5"/><circle cx="960" cy="200" r="7"/><circle cx="1050" cy="160" r="4"/>
    <circle cx="1000" cy="300" r="5"/><circle cx="920" cy="380" r="6"/>
  </g>
  <path d="M1000 460a70 70 0 1 0 0 140 58 58 0 0 1-33-105 58 58 0 0 1 33-35z" fill="#faf6ee" opacity="0.9"/>
  <text x="90" y="270" font-size="88" fill="#faf6ee">Mo Lumen</text>
  <text x="90" y="370" font-size="88" fill="#c8ab6e">Astrology</text>
  <text x="90" y="460" font-size="34" fill="#e5dfd3" font-family="Verdana, sans-serif">See yourself in a new light.</text>
  <text x="90" y="520" font-size="26" fill="#8fa0bd" font-family="Verdana, sans-serif">Readings with a classical lens — practical, candid, warm</text>
</svg>
